<svg id="my-svg" width="100%" xmlns="http://www.w3.org/2000/svg" xmlns:xlink="http://www.w3.org/1999/xlink" class="classDiagram" style="max-width: 550.646px; background-color: white;" viewBox="0 0 550.646484375 522" role="graphics-document document" aria-roledescription="class"><style>#my-svg{font-family:"trebuchet ms",verdana,arial,sans-serif;font-size:16px;fill:#333;}@keyframes edge-animation-frame{from{stroke-dashoffset:0;}}@keyframes dash{to{stroke-dashoffset:0;}}#my-svg .edge-animation-slow{stroke-dasharray:9,5!important;stroke-dashoffset:900;animation:dash 50s linear infinite;stroke-linecap:round;}#my-svg .edge-animation-fast{stroke-dasharray:9,5!important;stroke-dashoffset:900;animation:dash 20s linear infinite;stroke-linecap:round;}#my-svg .error-icon{fill:#552222;}#my-svg .error-text{fill:#552222;stroke:#552222;}#my-svg .edge-thickness-normal{stroke-width:1px;}#my-svg .edge-thickness-thick{stroke-width:3.5px;}#my-svg .edge-pattern-solid{stroke-dasharray:0;}#my-svg .edge-thickness-invisible{stroke-width:0;fill:none;}#my-svg .edge-pattern-dashed{stroke-dasharray:3;}#my-svg .edge-pattern-dotted{stroke-dasharray:2;}#my-svg .marker{fill:#333333;stroke:#333333;}#my-svg .marker.cross{stroke:#333333;}#my-svg svg{font-family:"trebuchet ms",verdana,arial,sans-serif;font-size:16px;}#my-svg p{margin:0;}#my-svg g.classGroup text{fill:#9370DB;stroke:none;font-family:"trebuchet ms",verdana,arial,sans-serif;font-size:10px;}#my-svg g.classGroup text .title{font-weight:bolder;}#my-svg .cluster-label text{fill:#333;}#my-svg .cluster-label span{color:#333;}#my-svg .cluster-label span p{background-color:transparent;}#my-svg .cluster rect{fill:#ffffde;stroke:#aaaa33;stroke-width:1px;}#my-svg .cluster text{fill:#333;}#my-svg .cluster span{color:#333;}#my-svg .nodeLabel,#my-svg .edgeLabel{color:#131300;}#my-svg .noteLabel .nodeLabel,#my-svg .noteLabel .edgeLabel{color:black;}#my-svg .edgeLabel .label rect{fill:#ECECFF;}#my-svg .label text{fill:#131300;}#my-svg .labelBkg{background:#ECECFF;}#my-svg .edgeLabel .label span{background:#ECECFF;}#my-svg .classTitle{font-weight:bolder;}#my-svg .node rect,#my-svg .node circle,#my-svg .node ellipse,#my-svg .node polygon,#my-svg .node path{fill:#ECECFF;stroke:#9370DB;stroke-width:1;}#my-svg .divider{stroke:#9370DB;stroke-width:1;}#my-svg g.clickable{cursor:pointer;}#my-svg g.classGroup rect{fill:#ECECFF;stroke:#9370DB;}#my-svg g.classGroup line{stroke:#9370DB;stroke-width:1;}#my-svg .classLabel .box{stroke:none;stroke-width:0;fill:#ECECFF;opacity:0.5;}#my-svg .classLabel .label{fill:#9370DB;font-size:10px;}#my-svg .relation{stroke:#333333;stroke-width:1;fill:none;}#my-svg .dashed-line{stroke-dasharray:3;}#my-svg .dotted-line{stroke-dasharray:1 2;}#my-svg [id$="-compositionStart"],#my-svg .composition{fill:#333333!important;stroke:#333333!important;stroke-width:1;}#my-svg [id$="-compositionEnd"],#my-svg .composition{fill:#333333!important;stroke:#333333!important;stroke-width:1;}#my-svg [id$="-dependencyStart"],#my-svg .dependency{fill:#333333!important;stroke:#333333!important;stroke-width:1;}#my-svg [id$="-dependencyEnd"],#my-svg .dependency{fill:#333333!important;stroke:#333333!important;stroke-width:1;}#my-svg [id$="-extensionStart"],#my-svg .extension{fill:transparent!important;stroke:#333333!important;stroke-width:1;}#my-svg [id$="-extensionEnd"],#my-svg .extension{fill:transparent!important;stroke:#333333!important;stroke-width:1;}#my-svg [id$="-aggregationStart"],#my-svg .aggregation{fill:transparent!important;stroke:#333333!important;stroke-width:1;}#my-svg [id$="-aggregationEnd"],#my-svg .aggregation{fill:transparent!important;stroke:#333333!important;stroke-width:1;}#my-svg [id$="-lollipopStart"],#my-svg .lollipop{fill:#ECECFF!important;stroke:#333333!important;stroke-width:1;}#my-svg [id$="-lollipopEnd"],#my-svg .lollipop{fill:#ECECFF!important;stroke:#333333!important;stroke-width:1;}#my-svg .edgeTerminals{font-size:11px;line-height:initial;}#my-svg .classTitleText{text-anchor:middle;font-size:18px;fill:#333;}#my-svg .edgeLabel[data-look="neo"]{background-color:rgba(232,232,232, 0.8);text-align:center;}#my-svg .edgeLabel[data-look="neo"] p{background-color:rgba(232,232,232, 0.8);}#my-svg .edgeLabel[data-look="neo"] rect{opacity:0.5;background-color:rgba(232,232,232, 0.8);fill:rgba(232,232,232, 0.8);}#my-svg .label-icon{display:inline-block;height:1em;overflow:visible;vertical-align:-0.125em;}#my-svg .node .label-icon path{fill:currentColor;stroke:revert;stroke-width:revert;}#my-svg .node .neo-node{stroke:#9370DB;}#my-svg [data-look="neo"].node rect,#my-svg [data-look="neo"].cluster rect,#my-svg [data-look="neo"].node polygon{stroke:#9370DB;filter:drop-shadow(1px 2px 2px rgba(185, 185, 185, 1));}#my-svg [data-look="neo"].node path{stroke:#9370DB;stroke-width:1px;}#my-svg [data-look="neo"].node .outer-path{filter:drop-shadow(1px 2px 2px rgba(185, 185, 185, 1));}#my-svg [data-look="neo"].node .neo-line path{stroke:#9370DB;filter:none;}#my-svg [data-look="neo"].node circle{stroke:#9370DB;filter:drop-shadow(1px 2px 2px rgba(185, 185, 185, 1));}#my-svg [data-look="neo"].node circle .state-start{fill:#000000;}#my-svg [data-look="neo"].icon-shape .icon{fill:#9370DB;filter:drop-shadow(1px 2px 2px rgba(185, 185, 185, 1));}#my-svg [data-look="neo"].icon-shape .icon-neo path{stroke:#9370DB;filter:drop-shadow(1px 2px 2px rgba(185, 185, 185, 1));}#my-svg :root{--mermaid-font-family:"trebuchet ms",verdana,arial,sans-serif;}</style><g><defs><marker id="my-svg_class-aggregationStart" class="marker aggregation class" refX="18" refY="7" markerWidth="190" markerHeight="240" orient="auto"><path d="M 18,7 L9,13 L1,7 L9,1 Z"/></marker></defs><defs><marker id="my-svg_class-aggregationEnd" class="marker aggregation class" refX="1" refY="7" markerWidth="20" markerHeight="28" orient="auto"><path d="M 18,7 L9,13 L1,7 L9,1 Z"/></marker></defs><defs><marker id="my-svg_class-aggregationStart-margin" class="marker aggregation class" refX="15" refY="7" markerWidth="190" markerHeight="240" orient="auto" markerUnits="userSpaceOnUse"><path d="M 18,7 L9,13 L1,7 L9,1 Z" style="stroke-width: 2;"/></marker></defs><defs><marker id="my-svg_class-aggregationEnd-margin" class="marker aggregation class" refX="1" refY="7" markerWidth="20" markerHeight="28" orient="auto" markerUnits="userSpaceOnUse"><path d="M 18,7 L9,13 L1,7 L9,1 Z" style="stroke-width: 2;"/></marker></defs><defs><marker id="my-svg_class-extensionStart" class="marker extension class" refX="18" refY="7" markerWidth="20" markerHeight="28" orient="auto" markerUnits="userSpaceOnUse"><path d="M 1,7 L18,13 V 1 Z"/></marker></defs><defs><marker id="my-svg_class-extensionEnd" class="marker extension class" refX="1" refY="7" markerWidth="20" markerHeight="28" orient="auto"><path d="M 1,1 V 13 L18,7 Z"/></marker></defs><marker id="my-svg_class-extensionStart-margin" class="marker extension class" refX="18" refY="7" markerWidth="20" markerHeight="28" orient="auto" markerUnits="userSpaceOnUse" viewBox="0 0 20 14"><polygon points="10,7 18,13 18,1" style="stroke-width: 2; stroke-dasharray: 0;"/></marker><defs><marker id="my-svg_class-extensionEnd-margin" class="marker extension class" refX="9" refY="7" markerWidth="20" markerHeight="28" orient="auto" markerUnits="userSpaceOnUse" viewBox="0 0 20 14"><polygon points="10,1 10,13 18,7" style="stroke-width: 2; stroke-dasharray: 0;"/></marker></defs><defs><marker id="my-svg_class-compositionStart" class="marker composition class" refX="18" refY="7" markerWidth="190" markerHeight="240" orient="auto"><path d="M 18,7 L9,13 L1,7 L9,1 Z"/></marker></defs><defs><marker id="my-svg_class-compositionEnd" class="marker composition class" refX="1" refY="7" markerWidth="20" markerHeight="28" orient="auto"><path d="M 18,7 L9,13 L1,7 L9,1 Z"/></marker></defs><defs><marker id="my-svg_class-compositionStart-margin" class="marker composition class" refX="15" refY="7" markerWidth="190" markerHeight="240" orient="auto" markerUnits="userSpaceOnUse"><path viewBox="0 0 15 15" d="M 18,7 L9,13 L1,7 L9,1 Z" style="stroke-width: 0;"/></marker></defs><defs><marker id="my-svg_class-compositionEnd-margin" class="marker composition class" refX="3.5" refY="7" markerWidth="20" markerHeight="28" orient="auto" markerUnits="userSpaceOnUse"><path d="M 18,7 L9,13 L1,7 L9,1 Z" style="stroke-width: 0;"/></marker></defs><defs><marker id="my-svg_class-dependencyStart" class="marker dependency class" refX="6" refY="7" markerWidth="190" markerHeight="240" orient="auto"><path d="M 5,7 L9,13 L1,7 L9,1 Z"/></marker></defs><defs><marker id="my-svg_class-dependencyEnd" class="marker dependency class" refX="13" refY="7" markerWidth="20" markerHeight="28" orient="auto"><path d="M 18,7 L9,13 L14,7 L9,1 Z"/></marker></defs><defs><marker id="my-svg_class-dependencyStart-margin" class="marker dependency class" refX="4" refY="7" markerWidth="190" markerHeight="240" orient="auto" markerUnits="userSpaceOnUse"><path d="M 5,7 L9,13 L1,7 L9,1 Z" style="stroke-width: 0;"/></marker></defs><defs><marker id="my-svg_class-dependencyEnd-margin" class="marker dependency class" refX="16" refY="7" markerWidth="20" markerHeight="28" orient="auto" markerUnits="userSpaceOnUse"><path d="M 18,7 L9,13 L14,7 L9,1 Z" style="stroke-width: 0;"/></marker></defs><defs><marker id="my-svg_class-lollipopStart" class="marker lollipop class" refX="13" refY="7" markerWidth="190" markerHeight="240" orient="auto"><circle fill="transparent" cx="7" cy="7" r="6"/></marker></defs><defs><marker id="my-svg_class-lollipopEnd" class="marker lollipop class" refX="1" refY="7" markerWidth="190" markerHeight="240" orient="auto"><circle fill="transparent" cx="7" cy="7" r="6"/></marker></defs><defs><marker id="my-svg_class-lollipopStart-margin" class="marker lollipop class" refX="13" refY="7" markerWidth="190" markerHeight="240" orient="auto" markerUnits="userSpaceOnUse"><circle fill="transparent" cx="7" cy="7" r="6" stroke-width="2"/></marker></defs><defs><marker id="my-svg_class-lollipopEnd-margin" class="marker lollipop class" refX="1" refY="7" markerWidth="190" markerHeight="240" orient="auto" markerUnits="userSpaceOnUse"><circle fill="transparent" cx="7" cy="7" r="6" stroke-width="2"/></marker></defs><g class="root"><g class="clusters"/><g class="edgePaths"><path d="M234.041,185.687L225.845,196.239C217.648,206.791,201.256,227.896,188.847,245.748C176.439,263.601,168.014,278.202,163.802,285.503L159.589,292.803" id="my-svg-id_Page_Sector_1" class="edge-thickness-normal edge-pattern-solid relation" style=";;;" data-edge="true" data-et="edge" data-id="id_Page_Sector_1" data-points="W3sieCI6MjM0LjA0MTAxNTYyNSwieSI6MTg1LjY4NzE0MTk2NTg1NTZ9LHsieCI6MTg0Ljg2MzI4MTI1LCJ5IjoyNDl9LHsieCI6MTU2LjU5MDU5ODA2MDM0NDgzLCJ5IjoyOTh9XQ==" data-look="classic" marker-end="url(#my-svg_class-dependencyEnd)"/><path d="M288.17,224L288.17,228.167C288.17,232.333,288.17,240.667,288.17,248C288.17,255.333,288.17,261.667,288.17,264.833L288.17,268" id="my-svg-id_Page_Event_2" class="edge-thickness-normal edge-pattern-solid relation" style=";;;" data-edge="true" data-et="edge" data-id="id_Page_Event_2" data-points="W3sieCI6Mjg4LjE2OTkyMTg3NSwieSI6MjI0fSx7IngiOjI4OC4xNjk5MjE4NzUsInkiOjI0OX0seyJ4IjoyODguMTY5OTIxODc1LCJ5IjoyNzR9XQ==" data-look="classic" marker-end="url(#my-svg_class-dependencyEnd)"/><path d="M342.299,154.305L364.601,170.088C386.903,185.87,431.507,217.435,453.809,238.384C476.111,259.333,476.111,269.667,476.111,274.833L476.111,280" id="my-svg-id_Page_Insight_3" class="edge-thickness-normal edge-pattern-solid relation" style=";;;" data-edge="true" data-et="edge" data-id="id_Page_Insight_3" data-points="W3sieCI6MzQyLjI5ODgyODEyNSwieSI6MTU0LjMwNTI2MDUzMjQ5NjQyfSx7IngiOjQ3Ni4xMTEzMjgxMjUsInkiOjI0OX0seyJ4Ijo0NzYuMTExMzI4MTI1LCJ5IjoyODZ9XQ==" data-look="classic" marker-end="url(#my-svg_class-dependencyEnd)"/><path d="M91.199,212L91.199,218.167C91.199,224.333,91.199,236.667,91.694,250.002C92.188,263.338,93.177,277.676,93.671,284.845L94.166,292.014" id="my-svg-id_RoutingRule_Sector_4" class="edge-thickness-normal edge-pattern-solid relation" style=";;;" data-edge="true" data-et="edge" data-id="id_RoutingRule_Sector_4" data-points="W3sieCI6OTEuMTk5MjE4NzUsInkiOjIxMn0seyJ4Ijo5MS4xOTkyMTg3NSwieSI6MjQ5fSx7IngiOjk0LjU3ODUyOTA5NDgyNzU5LCJ5IjoyOTh9XQ==" data-look="classic" marker-end="url(#my-svg_class-dependencyEnd)"/></g><g class="edgeLabels"><g class="edgeLabel"><g class="label" data-id="id_Page_Sector_1" transform="translate(0, 0)"><foreignObject width="0" height="0"><div xmlns="http://www.w3.org/1999/xhtml" class="labelBkg" style="display: table-cell; white-space: nowrap; line-height: 1.5; max-width: 200px; text-align: center;"><span class="edgeLabel"></span></div></foreignObject></g></g><g class="edgeLabel"><g class="label" data-id="id_Page_Event_2" transform="translate(0, 0)"><foreignObject width="0" height="0"><div xmlns="http://www.w3.org/1999/xhtml" class="labelBkg" style="display: table-cell; white-space: nowrap; line-height: 1.5; max-width: 200px; text-align: center;"><span class="edgeLabel"></span></div></foreignObject></g></g><g class="edgeLabel"><g class="label" data-id="id_Page_Insight_3" transform="translate(0, 0)"><foreignObject width="0" height="0"><div xmlns="http://www.w3.org/1999/xhtml" class="labelBkg" style="display: table-cell; white-space: nowrap; line-height: 1.5; max-width: 200px; text-align: center;"><span class="edgeLabel"></span></div></foreignObject></g></g><g class="edgeLabel"><g class="label" data-id="id_RoutingRule_Sector_4" transform="translate(0, 0)"><foreignObject width="0" height="0"><div xmlns="http://www.w3.org/1999/xhtml" class="labelBkg" style="display: table-cell; white-space: nowrap; line-height: 1.5; max-width: 200px; text-align: center;"><span class="edgeLabel"></span></div></foreignObject></g></g></g><g class="nodes"><g class="node default" id="my-svg-classId-Page-0" data-look="classic" transform="translate(288.169921875, 116)"><g class="basic label-container outer-path"><path d="M-54.12890625 -108 L54.12890625 -108 L54.12890625 108 L-54.12890625 108" stroke="none" stroke-width="0" fill="#ECECFF" style=""/><path d="M-54.12890625 -108 C-12.131407827028362 -108, 29.866090595943277 -108, 54.12890625 -108 M-54.12890625 -108 C-13.231402707358612 -108, 27.666100835282776 -108, 54.12890625 -108 M54.12890625 -108 C54.12890625 -61.44327059164039, 54.12890625 -14.886541183280784, 54.12890625 108 M54.12890625 -108 C54.12890625 -35.36975094195249, 54.12890625 37.26049811609502, 54.12890625 108 M54.12890625 108 C11.10802066867776 108, -31.91286491264448 108, -54.12890625 108 M54.12890625 108 C14.74194262820425 108, -24.6450209935915 108, -54.12890625 108 M-54.12890625 108 C-54.12890625 36.882491000501574, -54.12890625 -34.23501799899685, -54.12890625 -108 M-54.12890625 108 C-54.12890625 27.919899645412997, -54.12890625 -52.160200709174006, -54.12890625 -108" stroke="#9370DB" stroke-width="1.3" fill="none" stroke-dasharray="0 0" style=""/></g><g class="annotation-group text" transform="translate(0, -84)"/><g class="label-group text" transform="translate(-17.1953125, -84)"><g class="label" style="font-weight: bolder" transform="translate(0,-12)"><foreignObject width="34.390625" height="24"><div xmlns="http://www.w3.org/1999/xhtml" style="display: table-cell; white-space: nowrap; line-height: 1.5; max-width: 81px; text-align: center;"><span class="nodeLabel markdown-node-label" style=""><p>Page</p></span></div></foreignObject></g></g><g class="members-group text" transform="translate(-42.12890625, -36)"><g class="label" style="" transform="translate(0,-12)"><foreignObject width="30.703125" height="24"><div xmlns="http://www.w3.org/1999/xhtml" style="display: table-cell; white-space: nowrap; line-height: 1.5; max-width: 75px; text-align: center;"><span class="nodeLabel markdown-node-label" style=""><p>title</p></span></div></foreignObject></g><g class="label" style="" transform="translate(0,12)"><foreignObject width="27.96875" height="24"><div xmlns="http://www.w3.org/1999/xhtml" style="display: table-cell; white-space: nowrap; line-height: 1.5; max-width: 77px; text-align: center;"><span class="nodeLabel markdown-node-label" style=""><p>slug</p></span></div></foreignObject></g><g class="label" style="" transform="translate(0,36)"><foreignObject width="67.0625" height="24"><div xmlns="http://www.w3.org/1999/xhtml" style="display: table-cell; white-space: nowrap; line-height: 1.5; max-width: 112px; text-align: center;"><span class="nodeLabel markdown-node-label" style=""><p>pageType</p></span></div></foreignObject></g><g class="label" style="" transform="translate(0,60)"><foreignObject width="23.796875" height="24"><div xmlns="http://www.w3.org/1999/xhtml" style="display: table-cell; white-space: nowrap; line-height: 1.5; max-width: 71px; text-align: center;"><span class="nodeLabel markdown-node-label" style=""><p>seo</p></span></div></foreignObject></g><g class="label" style="" transform="translate(0,84)"><foreignObject width="59.453125" height="24"><div xmlns="http://www.w3.org/1999/xhtml" style="display: table-cell; white-space: nowrap; line-height: 1.5; max-width: 104px; text-align: center;"><span class="nodeLabel markdown-node-label" style=""><p>modules</p></span></div></foreignObject></g></g><g class="methods-group text" transform="translate(-42.12890625, 108)"/><g class="divider" style=""><path d="M-54.12890625 -60 C-25.691406325753263 -59.99973731688026, 2.7460935984934736 -59.999474633760514, 54.12890625 -59.999 M-54.12890625 -60 C-11.36628737410338 -59.999604992767836, 31.39633150179324 -59.99920998553567, 54.12890625 -59.999" stroke="#9370DB" stroke-width="1.3" fill="none" stroke-dasharray="0 0" style=""/></g><g class="divider" style=""><path d="M-54.12890625 84 C-17.493894319146392 84.00033840524841, 19.141117611707216 84.00067681049681, 54.12890625 84.001 M-54.12890625 84 C-18.04932067617316 84.00033327465927, 18.03026489765368 84.00066654931854, 54.12890625 84.001" stroke="#9370DB" stroke-width="1.3" fill="none" stroke-dasharray="0 0" style=""/></g></g><g class="node default" id="my-svg-classId-Sector-1" data-look="classic" transform="translate(101.19921875, 394)"><g class="basic label-container outer-path"><path d="M-65.20703125 -96 L65.20703125 -96 L65.20703125 96 L-65.20703125 96" stroke="none" stroke-width="0" fill="#ECECFF" style=""/><path d="M-65.20703125 -96 C-35.92601666303533 -96, -6.645002076070654 -96, 65.20703125 -96 M-65.20703125 -96 C-28.606942837617034 -96, 7.993145574765933 -96, 65.20703125 -96 M65.20703125 -96 C65.20703125 -39.52735196211142, 65.20703125 16.945296075777165, 65.20703125 96 M65.20703125 -96 C65.20703125 -51.64149170348321, 65.20703125 -7.282983406966423, 65.20703125 96 M65.20703125 96 C32.50392653003557 96, -0.19917818992885827 96, -65.20703125 96 M65.20703125 96 C33.06290662874449 96, 0.9187820074889856 96, -65.20703125 96 M-65.20703125 96 C-65.20703125 22.14269127177249, -65.20703125 -51.71461745645502, -65.20703125 -96 M-65.20703125 96 C-65.20703125 25.746642840742368, -65.20703125 -44.506714318515264, -65.20703125 -96" stroke="#9370DB" stroke-width="1.3" fill="none" stroke-dasharray="0 0" style=""/></g><g class="annotation-group text" transform="translate(0, -72)"/><g class="label-group text" transform="translate(-23.8984375, -72)"><g class="label" style="font-weight: bolder" transform="translate(0,-12)"><foreignObject width="47.796875" height="24"><div xmlns="http://www.w3.org/1999/xhtml" style="display: table-cell; white-space: nowrap; line-height: 1.5; max-width: 91px; text-align: center;"><span class="nodeLabel markdown-node-label" style=""><p>Sector</p></span></div></foreignObject></g></g><g class="members-group text" transform="translate(-53.20703125, -24)"><g class="label" style="" transform="translate(0,-12)"><foreignObject width="39.15625" height="24"><div xmlns="http://www.w3.org/1999/xhtml" style="display: table-cell; white-space: nowrap; line-height: 1.5; max-width: 85px; text-align: center;"><span class="nodeLabel markdown-node-label" style=""><p>name</p></span></div></foreignObject></g><g class="label" style="" transform="translate(0,12)"><foreignObject width="64.296875" height="24"><div xmlns="http://www.w3.org/1999/xhtml" style="display: table-cell; white-space: nowrap; line-height: 1.5; max-width: 110px; text-align: center;"><span class="nodeLabel markdown-node-label" style=""><p>summary</p></span></div></foreignObject></g><g class="label" style="" transform="translate(0,36)"><foreignObject width="82.515625" height="24"><div xmlns="http://www.w3.org/1999/xhtml" style="display: table-cell; white-space: nowrap; line-height: 1.5; max-width: 123px; text-align: center;"><span class="nodeLabel markdown-node-label" style=""><p>capabilities</p></span></div></foreignObject></g><g class="label" style="" transform="translate(0,60)"><foreignObject width="63.734375" height="24"><div xmlns="http://www.w3.org/1999/xhtml" style="display: table-cell; white-space: nowrap; line-height: 1.5; max-width: 107px; text-align: center;"><span class="nodeLabel markdown-node-label" style=""><p>ctaRoute</p></span></div></foreignObject></g></g><g class="methods-group text" transform="translate(-53.20703125, 96)"/><g class="divider" style=""><path d="M-65.20703125 -48 C-25.05677202587126 -47.999692132439904, 15.093487198257478 -47.99938426487981, 65.20703125 -47.999 M-65.20703125 -48 C-37.79834128722989 -47.999789833324435, -10.389651324459777 -47.99957966664887, 65.20703125 -47.999" stroke="#9370DB" stroke-width="1.3" fill="none" stroke-dasharray="0 0" style=""/></g><g class="divider" style=""><path d="M-65.20703125 72 C-29.88049772115042 72.00027087978744, 5.446035807699161 72.00054175957487, 65.20703125 72.001 M-65.20703125 72 C-33.56664602402715 72.00024261482712, -1.926260798054301 72.00048522965422, 65.20703125 72.001" stroke="#9370DB" stroke-width="1.3" fill="none" stroke-dasharray="0 0" style=""/></g></g><g class="node default" id="my-svg-classId-Event-2" data-look="classic" transform="translate(288.169921875, 394)"><g class="basic label-container outer-path"><path d="M-71.40625 -120 L71.40625 -120 L71.40625 120 L-71.40625 120" stroke="none" stroke-width="0" fill="#ECECFF" style=""/><path d="M-71.40625 -120 C-18.986078581253977 -120, 33.434092837492045 -120, 71.40625 -120 M-71.40625 -120 C-15.271157043249787 -120, 40.86393591350043 -120, 71.40625 -120 M71.40625 -120 C71.40625 -43.94815478279354, 71.40625 32.103690434412925, 71.40625 120 M71.40625 -120 C71.40625 -58.78828456499658, 71.40625 2.4234308700068397, 71.40625 120 M71.40625 120 C38.444401606054 120, 5.482553212108002 120, -71.40625 120 M71.40625 120 C23.493239799860305 120, -24.41977040027939 120, -71.40625 120 M-71.40625 120 C-71.40625 64.77169956735526, -71.40625 9.543399134710498, -71.40625 -120 M-71.40625 120 C-71.40625 43.79866968256066, -71.40625 -32.402660634878686, -71.40625 -120" stroke="#9370DB" stroke-width="1.3" fill="none" stroke-dasharray="0 0" style=""/></g><g class="annotation-group text" transform="translate(0, -96)"/><g class="label-group text" transform="translate(-21.265625, -96)"><g class="label" style="font-weight: bolder" transform="translate(0,-12)"><foreignObject width="42.53125" height="24"><div xmlns="http://www.w3.org/1999/xhtml" style="display: table-cell; white-space: nowrap; line-height: 1.5; max-width: 87px; text-align: center;"><span class="nodeLabel markdown-node-label" style=""><p>Event</p></span></div></foreignObject></g></g><g class="members-group text" transform="translate(-59.40625, -48)"><g class="label" style="" transform="translate(0,-12)"><foreignObject width="31.25" height="24"><div xmlns="http://www.w3.org/1999/xhtml" style="display: table-cell; white-space: nowrap; line-height: 1.5; max-width: 78px; text-align: center;"><span class="nodeLabel markdown-node-label" style=""><p>year</p></span></div></foreignObject></g><g class="label" style="" transform="translate(0,12)"><foreignObject width="32.390625" height="24"><div xmlns="http://www.w3.org/1999/xhtml" style="display: table-cell; white-space: nowrap; line-height: 1.5; max-width: 77px; text-align: center;"><span class="nodeLabel markdown-node-label" style=""><p>date</p></span></div></foreignObject></g><g class="label" style="" transform="translate(0,36)"><foreignObject width="30.703125" height="24"><div xmlns="http://www.w3.org/1999/xhtml" style="display: table-cell; white-space: nowrap; line-height: 1.5; max-width: 75px; text-align: center;"><span class="nodeLabel markdown-node-label" style=""><p>title</p></span></div></foreignObject></g><g class="label" style="" transform="translate(0,60)"><foreignObject width="64.296875" height="24"><div xmlns="http://www.w3.org/1999/xhtml" style="display: table-cell; white-space: nowrap; line-height: 1.5; max-width: 110px; text-align: center;"><span class="nodeLabel markdown-node-label" style=""><p>summary</p></span></div></foreignObject></g><g class="label" style="" transform="translate(0,84)"><foreignObject width="62.125" height="24"><div xmlns="http://www.w3.org/1999/xhtml" style="display: table-cell; white-space: nowrap; line-height: 1.5; max-width: 105px; text-align: center;"><span class="nodeLabel markdown-node-label" style=""><p>category</p></span></div></foreignObject></g><g class="label" style="" transform="translate(0,108)"><foreignObject width="97.546875" height="24"><div xmlns="http://www.w3.org/1999/xhtml" style="display: table-cell; white-space: nowrap; line-height: 1.5; max-width: 135px; text-align: center;"><span class="nodeLabel markdown-node-label" style=""><p>relatedSector</p></span></div></foreignObject></g></g><g class="methods-group text" transform="translate(-59.40625, 120)"/><g class="divider" style=""><path d="M-71.40625 -72 C-41.03635368647491 -71.99978734427089, -10.666457372949814 -71.99957468854178, 71.40625 -71.999 M-71.40625 -72 C-42.21688693586592 -71.99979561058686, -13.027523871731844 -71.99959122117372, 71.40625 -71.999" stroke="#9370DB" stroke-width="1.3" fill="none" stroke-dasharray="0 0" style=""/></g><g class="divider" style=""><path d="M-71.40625 96 C-23.80150438263341 96.00033333738726, 23.80324123473318 96.00066667477451, 71.40625 96.001 M-71.40625 96 C-17.10163792223166 96.00038025111301, 37.20297415553668 96.00076050222604, 71.40625 96.001" stroke="#9370DB" stroke-width="1.3" fill="none" stroke-dasharray="0 0" style=""/></g></g><g class="node default" id="my-svg-classId-Insight-3" data-look="classic" transform="translate(476.111328125, 394)"><g class="basic label-container outer-path"><path d="M-66.53515625 -108 L66.53515625 -108 L66.53515625 108 L-66.53515625 108" stroke="none" stroke-width="0" fill="#ECECFF" style=""/><path d="M-66.53515625 -108 C-20.47545497841005 -108, 25.584246293179902 -108, 66.53515625 -108 M-66.53515625 -108 C-29.544435774213177 -108, 7.446284701573646 -108, 66.53515625 -108 M66.53515625 -108 C66.53515625 -35.54167422920891, 66.53515625 36.91665154158218, 66.53515625 108 M66.53515625 -108 C66.53515625 -63.425093369532156, 66.53515625 -18.850186739064313, 66.53515625 108 M66.53515625 108 C32.91064582140489 108, -0.7138646071902173 108, -66.53515625 108 M66.53515625 108 C30.179998851781576 108, -6.1751585464368475 108, -66.53515625 108 M-66.53515625 108 C-66.53515625 45.22388308830413, -66.53515625 -17.552233823391745, -66.53515625 -108 M-66.53515625 108 C-66.53515625 41.822724491578654, -66.53515625 -24.35455101684269, -66.53515625 -108" stroke="#9370DB" stroke-width="1.3" fill="none" stroke-dasharray="0 0" style=""/></g><g class="annotation-group text" transform="translate(0, -84)"/><g class="label-group text" transform="translate(-24.7109375, -84)"><g class="label" style="font-weight: bolder" transform="translate(0,-12)"><foreignObject width="49.421875" height="24"><div xmlns="http://www.w3.org/1999/xhtml" style="display: table-cell; white-space: nowrap; line-height: 1.5; max-width: 94px; text-align: center;"><span class="nodeLabel markdown-node-label" style=""><p>Insight</p></span></div></foreignObject></g></g><g class="members-group text" transform="translate(-54.53515625, -36)"><g class="label" style="" transform="translate(0,-12)"><foreignObject width="30.703125" height="24"><div xmlns="http://www.w3.org/1999/xhtml" style="display: table-cell; white-space: nowrap; line-height: 1.5; max-width: 75px; text-align: center;"><span class="nodeLabel markdown-node-label" style=""><p>title</p></span></div></foreignObject></g><g class="label" style="" transform="translate(0,12)"><foreignObject width="62.125" height="24"><div xmlns="http://www.w3.org/1999/xhtml" style="display: table-cell; white-space: nowrap; line-height: 1.5; max-width: 105px; text-align: center;"><span class="nodeLabel markdown-node-label" style=""><p>category</p></span></div></foreignObject></g><g class="label" style="" transform="translate(0,36)"><foreignObject width="54.875" height="24"><div xmlns="http://www.w3.org/1999/xhtml" style="display: table-cell; white-space: nowrap; line-height: 1.5; max-width: 97px; text-align: center;"><span class="nodeLabel markdown-node-label" style=""><p>excerpt</p></span></div></foreignObject></g><g class="label" style="" transform="translate(0,60)"><foreignObject width="34.3125" height="24"><div xmlns="http://www.w3.org/1999/xhtml" style="display: table-cell; white-space: nowrap; line-height: 1.5; max-width: 82px; text-align: center;"><span class="nodeLabel markdown-node-label" style=""><p>body</p></span></div></foreignObject></g><g class="label" style="" transform="translate(0,84)"><foreignObject width="84.359375" height="24"><div xmlns="http://www.w3.org/1999/xhtml" style="display: table-cell; white-space: nowrap; line-height: 1.5; max-width: 127px; text-align: center;"><span class="nodeLabel markdown-node-label" style=""><p>publishDate</p></span></div></foreignObject></g></g><g class="methods-group text" transform="translate(-54.53515625, 108)"/><g class="divider" style=""><path d="M-66.53515625 -60 C-34.570218421971305 -59.99975978911278, -2.6052805939426094 -59.999519578225566, 66.53515625 -59.999 M-66.53515625 -60 C-14.241021160425888 -59.99960701876995, 38.053113929148225 -59.9992140375399, 66.53515625 -59.999" stroke="#9370DB" stroke-width="1.3" fill="none" stroke-dasharray="0 0" style=""/></g><g class="divider" style=""><path d="M-66.53515625 84 C-35.451684278786985 84.0002335868263, -4.368212307573977 84.0004671736526, 66.53515625 84.001 M-66.53515625 84 C-21.633279299819947 84.00033742970996, 23.268597650360107 84.0006748594199, 66.53515625 84.001" stroke="#9370DB" stroke-width="1.3" fill="none" stroke-dasharray="0 0" style=""/></g></g><g class="node default" id="my-svg-classId-RoutingRule-4" data-look="classic" transform="translate(91.19921875, 116)"><g class="basic label-container outer-path"><path d="M-83.19921875 -96 L83.19921875 -96 L83.19921875 96 L-83.19921875 96" stroke="none" stroke-width="0" fill="#ECECFF" style=""/><path d="M-83.19921875 -96 C-21.79948130889914 -96, 39.60025613220172 -96, 83.19921875 -96 M-83.19921875 -96 C-23.039820517899322 -96, 37.119577714201355 -96, 83.19921875 -96 M83.19921875 -96 C83.19921875 -19.491307189828646, 83.19921875 57.01738562034271, 83.19921875 96 M83.19921875 -96 C83.19921875 -22.415018939143536, 83.19921875 51.16996212171293, 83.19921875 96 M83.19921875 96 C41.928076669427746 96, 0.656934588855492 96, -83.19921875 96 M83.19921875 96 C18.95887291981937 96, -45.28147291036126 96, -83.19921875 96 M-83.19921875 96 C-83.19921875 48.854014086346595, -83.19921875 1.70802817269319, -83.19921875 -96 M-83.19921875 96 C-83.19921875 40.90004062086079, -83.19921875 -14.199918758278415, -83.19921875 -96" stroke="#9370DB" stroke-width="1.3" fill="none" stroke-dasharray="0 0" style=""/></g><g class="annotation-group text" transform="translate(0, -72)"/><g class="label-group text" transform="translate(-45.0078125, -72)"><g class="label" style="font-weight: bolder" transform="translate(0,-12)"><foreignObject width="90.015625" height="24"><div xmlns="http://www.w3.org/1999/xhtml" style="display: table-cell; white-space: nowrap; line-height: 1.5; max-width: 132px; text-align: center;"><span class="nodeLabel markdown-node-label" style=""><p>RoutingRule</p></span></div></foreignObject></g></g><g class="members-group text" transform="translate(-71.19921875, -24)"><g class="label" style="" transform="translate(0,-12)"><foreignObject width="86.78125" height="24"><div xmlns="http://www.w3.org/1999/xhtml" style="display: table-cell; white-space: nowrap; line-height: 1.5; max-width: 131px; text-align: center;"><span class="nodeLabel markdown-node-label" style=""><p>enquiryType</p></span></div></foreignObject></g><g class="label" style="" transform="translate(0,12)"><foreignObject width="80.40625" height="24"><div xmlns="http://www.w3.org/1999/xhtml" style="display: table-cell; white-space: nowrap; line-height: 1.5; max-width: 120px; text-align: center;"><span class="nodeLabel markdown-node-label" style=""><p>destination</p></span></div></foreignObject></g><g class="label" style="" transform="translate(0,36)"><foreignObject width="50.96875" height="24"><div xmlns="http://www.w3.org/1999/xhtml" style="display: table-cell; white-space: nowrap; line-height: 1.5; max-width: 96px; text-align: center;"><span class="nodeLabel markdown-node-label" style=""><p>backup</p></span></div></foreignObject></g><g class="label" style="" transform="translate(0,60)"><foreignObject width="97.390625" height="24"><div xmlns="http://www.w3.org/1999/xhtml" style="display: table-cell; white-space: nowrap; line-height: 1.5; max-width: 139px; text-align: center;"><span class="nodeLabel markdown-node-label" style=""><p>autoResponse</p></span></div></foreignObject></g></g><g class="methods-group text" transform="translate(-71.19921875, 96)"/><g class="divider" style=""><path d="M-83.19921875 -48 C-35.486926306101935 -47.999713264780844, 12.22536613779613 -47.99942652956169, 83.19921875 -47.999 M-83.19921875 -48 C-33.03213852293444 -47.99969851231189, 17.134941704131123 -47.99939702462378, 83.19921875 -47.999" stroke="#9370DB" stroke-width="1.3" fill="none" stroke-dasharray="0 0" style=""/></g><g class="divider" style=""><path d="M-83.19921875 72 C-29.79933112590262 72.0003209157996, 23.600556498194763 72.00064183159922, 83.19921875 72.001 M-83.19921875 72 C-22.314978526644097 72.00036589430249, 38.569261696711806 72.00073178860497, 83.19921875 72.001" stroke="#9370DB" stroke-width="1.3" fill="none" stroke-dasharray="0 0" style=""/></g></g></g></g></g><defs><filter id="my-svg-drop-shadow" height="130%" width="130%"><feDropShadow dx="4" dy="4" stdDeviation="0" flood-opacity="0.06" flood-color="#000000"/></filter></defs><defs><filter id="my-svg-drop-shadow-small" height="150%" width="150%"><feDropShadow dx="2" dy="2" stdDeviation="0" flood-opacity="0.06" flood-color="#000000"/></filter></defs></svg>